REM DIRINDEX 1\6,1\2\7,1\2\8,1\2\9,1\3\10,1\3\11,1\4\12,1\4\13,1\4\14,1\5\15,1\5\16,1\5\17
REM DIRNAME cjc040,folder01,folder02,folder03,folder04,folder05,folder06,folder07,folder08,folder09,folder10,folder11,folder12,folder13,folder14,folder15,folder16
TITLE ""
FILE "P2Q_k_051-060.mp3" MP3
  TRACK 01 AUDIO
    TITLE "15:cjc040_1449"
    INDEX 01 00:00:00
  TRACK 02 AUDIO
    TITLE "0:"
    INDEX 01 00:02:00
  TRACK 03 AUDIO
    TITLE "16:cjc040_1450"
    INDEX 01 00:02:53
  TRACK 04 AUDIO
    TITLE "0:"
    INDEX 01 00:04:36
  TRACK 05 AUDIO
    TITLE "17:cjc040_1451"
    INDEX 01 00:05:12
  TRACK 06 AUDIO
    TITLE "17:cjc040_1452"
    INDEX 01 00:08:40
  TRACK 07 AUDIO
    TITLE "0:"
    INDEX 01 00:10:37
  TRACK 08 AUDIO
    TITLE "15:cjc040_1453"
    INDEX 01 00:11:13
  TRACK 09 AUDIO
    TITLE "0:"
    INDEX 01 00:13:10
  TRACK 10 AUDIO
    TITLE "16:cjc040_1454"
    INDEX 01 00:13:63
  TRACK 11 AUDIO
    TITLE "0:"
    INDEX 01 00:15:70
  TRACK 12 AUDIO
    TITLE "17:cjc040_1455"
    INDEX 01 00:16:44
  TRACK 13 AUDIO
    TITLE "17:cjc040_1456"
    INDEX 01 00:20:16
  TRACK 14 AUDIO
    TITLE "0:"
    INDEX 01 00:23:16
  TRACK 15 AUDIO
    TITLE "15:cjc040_1457"
    INDEX 01 00:23:65
  TRACK 16 AUDIO
    TITLE "0:"
    INDEX 01 00:25:52
  TRACK 17 AUDIO
    TITLE "16:cjc040_1458"
    INDEX 01 00:26:30
  TRACK 18 AUDIO
    TITLE "0:"
    INDEX 01 00:28:10
  TRACK 19 AUDIO
    TITLE "17:cjc040_1459"
    INDEX 01 00:28:62
  TRACK 20 AUDIO
    TITLE "17:cjc040_1460"
    INDEX 01 00:31:71
  TRACK 21 AUDIO
    TITLE "0:"
    INDEX 01 00:34:16
  TRACK 22 AUDIO
    TITLE "15:cjc040_1461"
    INDEX 01 00:34:73
  TRACK 23 AUDIO
    TITLE "0:"
    INDEX 01 00:37:01
  TRACK 24 AUDIO
    TITLE "16:cjc040_1462"
    INDEX 01 00:37:52
  TRACK 25 AUDIO
    TITLE "0:"
    INDEX 01 00:40:07
  TRACK 26 AUDIO
    TITLE "17:cjc040_1463"
    INDEX 01 00:40:64
  TRACK 27 AUDIO
    TITLE "17:cjc040_1464"
    INDEX 01 00:44:30
  TRACK 28 AUDIO
    TITLE "0:"
    INDEX 01 00:47:56
  TRACK 29 AUDIO
    TITLE "15:cjc040_1465"
    INDEX 01 00:48:36
  TRACK 30 AUDIO
    TITLE "0:"
    INDEX 01 00:50:01
  TRACK 31 AUDIO
    TITLE "16:cjc040_1466"
    INDEX 01 00:50:54
  TRACK 32 AUDIO
    TITLE "0:"
    INDEX 01 00:52:16
  TRACK 33 AUDIO
    TITLE "17:cjc040_1467"
    INDEX 01 00:52:69
  TRACK 34 AUDIO
    TITLE "17:cjc040_1468"
    INDEX 01 00:55:14
  TRACK 35 AUDIO
    TITLE "0:"
    INDEX 01 00:56:47
  TRACK 36 AUDIO
    TITLE "15:cjc040_1469"
    INDEX 01 00:57:21
  TRACK 37 AUDIO
    TITLE "0:"
    INDEX 01 00:58:66
  TRACK 38 AUDIO
    TITLE "16:cjc040_1470"
    INDEX 01 00:59:39
  TRACK 39 AUDIO
    TITLE "0:"
    INDEX 01 01:01:07
  TRACK 40 AUDIO
    TITLE "17:cjc040_1471"
    INDEX 01 01:01:60
  TRACK 41 AUDIO
    TITLE "17:cjc040_1472"
    INDEX 01 01:04:31
  TRACK 42 AUDIO
    TITLE "0:"
    INDEX 01 01:07:43
  TRACK 43 AUDIO
    TITLE "15:cjc040_1473"
    INDEX 01 01:08:25
  TRACK 44 AUDIO
    TITLE "0:"
    INDEX 01 01:09:65
  TRACK 45 AUDIO
    TITLE "16:cjc040_1474"
    INDEX 01 01:10:41
  TRACK 46 AUDIO
    TITLE "0:"
    INDEX 01 01:11:62
  TRACK 47 AUDIO
    TITLE "17:cjc040_1475"
    INDEX 01 01:12:46
  TRACK 48 AUDIO
    TITLE "17:cjc040_1476"
    INDEX 01 01:15:40
  TRACK 49 AUDIO
    TITLE "0:"
    INDEX 01 01:19:40
  TRACK 50 AUDIO
    TITLE "15:cjc040_1477"
    INDEX 01 01:20:20
  TRACK 51 AUDIO
    TITLE "0:"
    INDEX 01 01:21:49
  TRACK 52 AUDIO
    TITLE "16:cjc040_1478"
    INDEX 01 01:22:31
  TRACK 53 AUDIO
    TITLE "0:"
    INDEX 01 01:24:53
  TRACK 54 AUDIO
    TITLE "17:cjc040_1479"
    INDEX 01 01:25:23
  TRACK 55 AUDIO
    TITLE "17:cjc040_1480"
    INDEX 01 01:27:03
  TRACK 56 AUDIO
    TITLE "0:"
    INDEX 01 01:28:35
  TRACK 57 AUDIO
    TITLE "15:cjc040_1481"
    INDEX 01 01:29:09
  TRACK 58 AUDIO
    TITLE "0:"
    INDEX 01 01:30:40
  TRACK 59 AUDIO
    TITLE "16:cjc040_1482"
    INDEX 01 01:31:16
  TRACK 60 AUDIO
    TITLE "0:"
    INDEX 01 01:33:01
  TRACK 61 AUDIO
    TITLE "17:cjc040_1483"
    INDEX 01 01:33:50
  TRACK 62 AUDIO
    TITLE "17:cjc040_1484"
    INDEX 01 01:36:27
  TRACK 63 AUDIO
    TITLE "0:"
    INDEX 01 01:42:04
  TRACK 64 AUDIO
    TITLE "15:cjc040_1485"
    INDEX 01 01:42:55
  TRACK 65 AUDIO
    TITLE "0:"
    INDEX 01 01:44:34
  TRACK 66 AUDIO
    TITLE "16:cjc040_1486"
    INDEX 01 01:45:14
  TRACK 67 AUDIO
    TITLE "0:"
    INDEX 01 01:46:43
  TRACK 68 AUDIO
    TITLE "17:cjc040_1487"
    INDEX 01 01:47:21
  TRACK 69 AUDIO
    TITLE "17:cjc040_1488"
    INDEX 01 01:49:67
  TRACK 70 AUDIO
    TITLE "0:"
    INDEX 01 01:51:64
